# xmcd CD database file
#
# Track frame offsets:
#	150
#	24072
#	51170
#	68215
#	102250
#	125000
#	161655
#	195975
#	249522
#
# Disc length: 3993 seconds
#
# Revision: 6
# Processed by: cddbd v1.5.1PL0 Copyright (c) Steve Scherf et al.
# Submitted via: CDex 1.51
#
DISCID=700f9709
DTITLE=B.S.M.F - VOLUME II
DYEAR=2000
DGENRE=Blues
TTITLE0=Everything gonna be alright (Jacobs Wallter)
TTITLE1=Mannish boy (McKinley Morganfield)
TTITLE2=Georgia swing (Mike Bloomfield)
TTITLE3=The sky is crying ( Elmore James)
TTITLE4=Someone eles is steppin' in (Denise La Salle)
TTITLE5=We The People Who Are Darker Than Blue (Curtis Mayfield)
TTITLE6=(Don't Worry) If There's a Hell Below We're All Gonna Go (Curtis Mayfield)
TTITLE7=Stone Junkie (Curtis Mayfield)
TTITLE8=Move On Up (Curtis Mayfield)
EXTD=YEAR: 2000
EXTT0=
EXTT1=
EXTT2=
EXTT3=
EXTT4=
EXTT5=
EXTT6=
EXTT7=
EXTT8=
PLAYORDER=
